<svg xmlns="http://www.w3.org/2000/svg" width="142" height="143" viewBox="0 0 142 143">
    <path fill="#EAEAEA" fill-rule="evenodd" d="M43.846 13.579l1.92-9.03L62.06 8.013 66.502 0l14.609 8.098 6.54-6.317 11.64 12.052 8.05-4.103 7.618 14.951 9.13-1.446 2.608 16.465 9.179 1.29-2.324 16.534 8.385 3.91-7.06 15.142 6.863 6.18-11.18 12.415 4.744 7.895-14.32 8.604 2.22 8.897-16.216 4.043-.477 9.101-16.682-.874-3.331 8.678-15.49-5.945-5.71 7.31-13.113-10.245-7.547 5.285-9.575-13.674-8.715 2.832-5.173-15.92-9.128.159-.293-16.772-8.756-2.51 4.628-16.142L0 70.941l9.133-14.064-5.867-7.245L16.18 39.174l-3.5-8.662 15.408-6.225-.81-9.259 16.568-1.45zm11.92 8.952l.483 5.532L42.093 29.3l2.103 5.206-13.188 5.328 3.565 4.402-11.032 8.934 4.567 2.966-7.805 12.018 5.246 1.504-3.946 13.762 5.468-.096.249 14.286 5.212-1.694 4.403 13.551 4.506-3.155 8.15 11.639 3.408-4.363 11.172 8.728 2.002-5.217 13.181 5.06.283-5.389 14.232.746-1.32-5.292 13.84-3.45-2.838-4.725 12.238-7.353-4.127-3.716 9.559-10.616-5.058-2.358 6.035-12.942-5.54-.778 1.984-14.119-5.535.877-2.219-14.006-4.78 2.436-6.48-12.718-3.874 3.741-9.89-10.241-2.633 4.75-12.43-6.891-1.142 5.368-13.894-2.953z"/>
</svg>
