<?xml version="1.0" encoding="UTF-8"?>
<svg width="19px" height="20px" viewBox="0 0 19 20" version="1.1" xmlns="http://www.w3.org/2000/svg" xmlns:xlink="http://www.w3.org/1999/xlink">
    <!-- Generator: Sketch 49.1 (51147) - http://www.bohemiancoding.com/sketch -->
    <title>Combined Shape</title>
    <desc>Created with Sketch.</desc>
    <defs></defs>
    <g id="Page-1" stroke="none" stroke-width="1" fill="none" fill-rule="evenodd" stroke-linecap="round">
        <g id="011-withdraw-copy" transform="translate(-982.000000, -88.000000)" stroke="#FFFFFF" stroke-width="2">
            <path d="M989.941348,97.5571901 L983.28242,90.6964761 C982.897767,90.3001672 982.907216,89.6670727 983.303525,89.28242 C983.699834,88.8977673 984.332929,88.9072164 984.717581,89.3035253 L991.33492,96.1213891 L997.952258,89.3035253 C998.336911,88.9072164 998.970005,88.8977673 999.366314,89.28242 C999.762623,89.6670727 999.772072,90.3001672 999.38742,90.6964761 L992.728491,97.5571901 L999.38742,104.417904 C999.772072,104.814213 999.762623,105.447307 999.366314,105.83196 C998.970005,106.216613 998.336911,106.207164 997.952258,105.810855 L991.33492,98.992991 L984.717581,105.810855 C984.332929,106.207164 983.699834,106.216613 983.303525,105.83196 C982.907216,105.447307 982.897767,104.814213 983.28242,104.417904 L989.941348,97.5571901 Z" id="Combined-Shape"></path>
        </g>
    </g>
</svg>